<?xml version="1.0" standalone="no"?>
<!DOCTYPE svg PUBLIC "-//W3C//DTD SVG 20010904//EN"
 "http://www.w3.org/TR/2001/REC-SVG-20010904/DTD/svg10.dtd">
<svg version="1.0" xmlns="http://www.w3.org/2000/svg"
 width="225.000000pt" height="225.000000pt" viewBox="0 0 225.000000 225.000000"
 preserveAspectRatio="xMidYMid meet">

<g transform="translate(0.000000,225.000000) scale(0.100000,-0.100000)"
fill="#007500" stroke="none">
<path d="M619 2036 c-41 -58 -129 -221 -129 -240 0 -2 55 -41 123 -86 147 -99
350 -200 472 -237 82 -25 104 -27 255 -27 152 0 172 2 254 27 49 16 121 44
159 63 38 19 72 33 74 30 6 -5 -101 -217 -205 -406 -171 -311 -354 -616 -483
-805 -109 -158 -90 -148 -155 -85 -105 104 -191 258 -264 476 -48 145 -65 223
-81 379 -13 133 -7 313 14 413 l14 63 -51 33 c-28 19 -54 31 -58 27 -14 -13
-47 -130 -64 -226 -23 -135 -23 -404 0 -535 58 -324 194 -605 375 -773 84 -77
139 -102 226 -102 119 1 185 50 285 214 l55 90 94 3 93 3 43 135 c24 74 84
266 133 425 50 160 118 377 151 484 64 203 72 261 46 311 -36 69 -121 77 -256
25 -137 -54 -193 -66 -309 -67 -93 0 -116 3 -200 31 -150 51 -279 142 -458
324 l-103 105 -50 -72z"/>
<path d="M714 1553 c3 -10 51 -193 107 -408 55 -214 116 -448 135 -520 19 -71
44 -167 55 -212 12 -46 24 -81 28 -79 4 3 28 35 53 73 l47 68 -75 280 c-41
154 -97 368 -125 475 -71 276 -57 248 -150 298 -65 35 -80 40 -75 25z"/>
<path d="M1672 1444 c-31 -13 -33 -17 -27 -47 12 -52 16 -52 46 4 16 29 29 54
29 56 0 6 -14 2 -48 -13z"/>
<path d="M1015 1402 c6 -29 166 -635 194 -740 l17 -62 37 63 c20 35 37 70 37
79 0 8 -13 61 -29 119 -16 57 -50 185 -76 284 -67 259 -59 244 -128 265 l-59
18 7 -26z"/>
<path d="M1488 1393 c-16 -2 -28 -9 -28 -15 0 -19 65 -258 70 -258 3 0 18 23
34 51 31 56 31 70 1 172 -17 59 -17 59 -77 50z"/>
<path d="M1250 1363 c0 -8 29 -122 65 -254 36 -131 65 -242 65 -246 0 -5 18
22 39 58 l40 65 -50 189 c-27 104 -50 190 -52 191 -1 1 -26 4 -54 6 -42 4 -53
2 -53 -9z"/>
</g>
</svg>
